<svg width="22" height="38" viewBox="0 0 22 38" fill="none" xmlns="http://www.w3.org/2000/svg">
<path d="M4.70752 37.0732C4.70753 36.1557 4.78941 35.2387 4.93609 34.3311C4.92072 34.3051 4.90781 34.2773 4.89788 34.248L4.87777 34.1595L4.86035 34.0476C4.81238 33.7837 4.71273 33.5006 4.60095 33.1594C4.48203 32.7964 4.34898 32.3654 4.34892 31.9315C4.34892 31.7095 4.33513 31.4982 4.31808 31.2853C4.31247 31.2872 4.3071 31.2903 4.30133 31.292C4.17729 31.3295 4.06379 31.3151 3.97691 31.2887L3.89916 31.2598C3.68535 31.1648 3.39632 31.0535 3.12297 30.8637L3.00701 30.7772C0.544926 28.8076 0.411 25.5825 0.41099 22.8156C0.41099 22.7141 0.419981 22.597 0.427748 22.4945C0.436028 22.3852 0.44401 22.2809 0.447186 22.1795C0.450367 22.0776 0.448097 21.9928 0.439142 21.9261C0.434403 21.8909 0.428545 21.868 0.424396 21.8544L0.419034 21.8383C0.318923 21.6756 0.196951 21.3843 0.134833 21.0936C0.103377 20.9463 0.0815173 20.7743 0.0972969 20.6043C0.112836 20.4372 0.170498 20.2204 0.347984 20.054L0.423056 19.9957C0.600662 19.8848 0.785728 19.9394 0.848687 19.9649C0.928059 19.997 0.98696 20.0443 1.01559 20.0688C1.08045 20.1242 1.14417 20.1962 1.19724 20.2605C1.3088 20.3955 1.44147 20.5795 1.56723 20.7592C1.69422 20.9406 1.82336 21.1311 1.92517 21.28C1.97689 21.3556 2.02088 21.4198 2.05587 21.469C2.09638 21.5259 2.10989 21.5421 2.10614 21.538L2.19998 21.6473C2.41457 21.9118 2.5998 22.2345 2.75498 22.4825C2.95349 22.7996 3.1145 23.0173 3.28316 23.1333L3.34684 23.1829C3.48349 23.3051 3.54558 23.4651 3.57675 23.5583C3.61729 23.6795 3.64369 23.8146 3.66322 23.9142C3.68565 24.0285 3.70105 24.1056 3.71952 24.1635C3.72003 24.1651 3.72038 24.1667 3.72086 24.1682C4.00241 24.3936 4.05857 24.6951 4.08684 24.87C4.1224 25.0901 4.12826 25.1175 4.15319 25.1475L4.19073 25.1971C4.22413 25.2471 4.24681 25.2965 4.25977 25.3251C4.2821 25.3745 4.30362 25.4297 4.32345 25.4847C4.36342 25.5956 4.40419 25.7276 4.44075 25.856C4.47742 25.9849 4.51139 26.1167 4.5366 26.2287C4.55725 26.3205 4.58484 26.4522 4.58486 26.5491C4.58486 26.7647 4.65361 27.2288 4.71288 27.4955L4.83622 28.0096C4.96824 28.5483 5.11035 29.154 5.11036 29.7725C5.11036 30.133 5.14104 30.4634 5.17404 30.8141C5.20663 31.1605 5.24174 31.5284 5.24174 31.9315C5.24178 32.0975 5.27418 32.2748 5.32619 32.4717C5.61972 31.3347 6.00373 30.2235 6.4449 29.1565L6.59907 28.7965C6.97206 27.9575 7.42487 27.1278 7.83038 26.352L8.0442 25.9586C8.26373 25.5691 8.49764 25.1915 8.72588 24.8231C9.03317 24.3271 9.33031 23.8477 9.58988 23.3545L9.60798 23.3203C9.94143 22.4441 10.043 21.403 10.0778 20.4099L10.1817 17.9895C10.2159 17.189 10.2427 16.392 10.2427 15.5906C10.2427 13.1895 10.3094 10.701 9.86336 8.39908C9.63098 8.45784 9.38506 8.50688 9.17564 8.54588C8.99006 8.58043 8.82907 8.6098 8.69974 8.63838C8.63573 8.65252 8.58737 8.66473 8.55295 8.67524C8.53085 8.682 8.52144 8.68597 8.52144 8.68597L8.439 8.73222C7.93403 8.9923 7.41003 8.89752 7.01799 8.78383C6.81345 8.7245 6.59157 8.64261 6.43552 8.59079C6.30251 8.54662 6.20232 8.51881 6.1245 8.50566L6.05345 8.49762C5.88132 8.48804 5.72059 8.45469 5.57688 8.38166C5.42647 8.30518 5.32502 8.20083 5.25246 8.09679C5.1911 8.00876 5.14013 7.9023 5.11572 7.85548C5.10019 7.8257 5.0864 7.80093 5.07283 7.77907L5.0306 7.72009C4.95756 7.63244 4.86101 7.47986 4.87576 7.27971C4.88546 7.14818 4.93866 7.04685 5.00044 6.97272C4.94536 6.68627 5.09196 6.44128 5.27525 6.27629L5.37714 6.19787C5.62298 6.03577 5.91926 6.0165 6.10976 6.01488C6.2328 6.01384 6.35462 6.02114 6.45562 6.02761C6.56441 6.03459 6.64199 6.03968 6.70497 6.03968C7.12482 6.03969 7.55579 6.08127 7.95237 6.12011C7.97775 6.1226 8.00305 6.12437 8.02811 6.12682C7.83008 5.86623 7.65391 5.59205 7.51334 5.33856L7.39335 5.11066C7.3303 4.98456 7.24554 4.83605 7.14602 4.66492C7.04902 4.49812 6.93895 4.31162 6.83769 4.12535C6.73644 3.93909 6.63753 3.74169 6.56153 3.54823C6.50581 3.40638 6.45628 3.25169 6.43149 3.09445L6.41541 2.93626C6.41287 2.87359 6.39044 2.74141 6.35575 2.50526C6.3246 2.29315 6.28953 2.02917 6.27934 1.77063C6.26959 1.52284 6.27981 1.22788 6.37184 0.977014C6.41978 0.846415 6.49887 0.703952 6.63057 0.59093C6.7687 0.472468 6.9383 0.409277 7.12189 0.401909L7.22377 0.402579C7.72211 0.427322 8.07921 0.778268 8.30628 1.05276C8.43616 1.20975 8.55324 1.38012 8.65282 1.52397C8.75841 1.67649 8.83996 1.79324 8.91423 1.87989L9.03958 2.03338C9.57047 2.71346 9.85236 3.49226 10.0349 4.26946C10.0553 4.21751 10.0746 4.16527 10.0959 4.11395C10.4342 3.30225 10.9274 2.51235 11.3159 1.80012L11.3735 1.70897C11.44 1.61449 11.5303 1.51277 11.6148 1.42208C11.7343 1.2939 11.8823 1.14696 12.0418 0.999133C12.2226 0.770048 12.4435 0.542298 12.7 0.413974L12.7912 0.373087C12.7944 0.371774 12.7979 0.371017 12.8012 0.369735C12.9807 0.24067 13.1759 0.116975 13.3535 0.0526903C13.4425 0.020519 13.6039 -0.026403 13.7785 0.0185057C13.8783 0.0441665 13.9793 0.0998547 14.0587 0.194121C14.116 0.262223 14.1501 0.335718 14.1693 0.40392L14.184 0.470278L14.2155 0.719624C14.2674 1.29514 14.1659 1.82172 14.0252 2.30686C13.9454 2.58169 13.8498 2.85322 13.7617 3.10919C13.7169 3.23941 13.6741 3.36669 13.6337 3.4926L13.5224 3.86796C13.4492 4.14478 13.3092 4.40464 13.1873 4.61733C13.1257 4.7248 13.0695 4.81882 13.0197 4.90556C13.0526 4.90563 13.0849 4.90467 13.1163 4.90556C13.2513 4.90936 13.3865 4.9198 13.4976 4.92835L13.7524 4.94376L14.0781 4.93505C14.1782 4.93355 14.3276 4.93493 14.4722 4.98331C14.6453 5.04121 14.7949 5.15937 14.8851 5.34593C14.9627 5.50651 14.9816 5.68818 14.9817 5.85937C14.9817 6.35759 14.7495 6.75724 14.4327 7.06052C14.1227 7.35721 13.7164 7.57857 13.3086 7.7469C12.6963 7.99966 12.0129 8.15949 11.4841 8.26101L11.0156 8.34412C10.932 8.35804 10.8481 8.36866 10.7662 8.37764C11.2027 10.7515 11.1349 13.286 11.1349 15.5906C11.1349 16.4014 11.1077 17.2162 11.0732 18.0271L10.9693 20.4408C10.9621 20.6471 10.9499 20.8603 10.9351 21.0775C10.969 21.0235 11.0033 20.9699 11.037 20.916C11.5336 20.1213 12.0144 19.3425 12.4198 18.5318L12.6102 18.1658C12.8064 17.8019 13.0198 17.4406 13.2376 17.086C13.2074 17.018 13.1664 16.9384 13.1116 16.8279C13.0462 16.6963 12.9551 16.5064 12.9239 16.2897L12.9145 16.1952C12.8984 15.9055 12.9138 15.5794 12.9138 15.3386C12.9138 15.2119 12.9011 15.1258 12.8937 14.9277C12.8879 14.7712 12.888 14.5594 12.9494 14.3599L13.0271 14.1354C13.0545 14.0624 13.0818 13.9934 13.1035 13.9356C13.1519 13.807 13.1836 13.708 13.198 13.6213L13.2349 13.4604C13.2785 13.3113 13.3396 13.1964 13.3837 13.1119C13.4439 12.9965 13.4687 12.9443 13.4816 12.8739L13.5097 12.7546C13.586 12.4822 13.7391 12.2462 13.8201 12.1044L14.0091 11.782C14.0636 11.6868 14.1081 11.6008 14.1371 11.5139L14.1659 11.4388C14.2404 11.2686 14.3582 11.1347 14.4019 11.0789C14.4605 11.0039 14.4698 10.9797 14.4709 10.9757L14.4863 10.8992C14.4922 10.8789 14.498 10.8637 14.5011 10.8557C14.5097 10.833 14.5195 10.8122 14.5272 10.796C14.5428 10.7633 14.5613 10.7283 14.5795 10.6962C14.6165 10.6309 14.6636 10.5549 14.7109 10.4823C14.758 10.4099 14.8098 10.3349 14.857 10.2719C14.8803 10.2407 14.9056 10.2075 14.9314 10.178C14.943 10.1648 14.9719 10.1305 15.0132 10.0962C15.0187 10.0894 15.0275 10.0798 15.038 10.0654C15.0682 10.0241 15.1065 9.96744 15.1445 9.90589C15.1825 9.84444 15.2166 9.78478 15.2404 9.73899C15.248 9.72432 15.2527 9.71228 15.2565 9.70413C15.2908 9.52368 15.3759 9.37837 15.4368 9.28319C15.5248 9.14562 15.5555 9.11456 15.5943 9.04122L15.786 8.68262C15.8591 8.55394 15.9557 8.39666 16.0662 8.27508L16.089 8.24559C16.1115 8.21085 16.1358 8.15676 16.1761 8.05255C16.221 7.93656 16.2942 7.73351 16.4422 7.55587L16.4744 7.48951C16.498 7.44281 16.5453 7.34513 16.5769 7.2844C16.5951 7.24945 16.6165 7.21002 16.6393 7.17313C16.657 7.14443 16.6958 7.08315 16.7526 7.02969C16.7787 7.0051 16.8453 6.94611 16.9489 6.91574C17.0829 6.87652 17.2469 6.89657 17.3766 7.0069C17.476 7.0916 17.5117 7.19402 17.524 7.2348C17.5316 7.25971 17.5365 7.2838 17.5401 7.30518L17.5475 7.36081L17.5643 7.44393C17.5745 7.48049 17.5897 7.52527 17.6105 7.57597C17.6509 7.67433 17.6978 7.75763 17.7305 7.80253L17.7855 7.89704C17.831 7.99289 17.8491 8.08866 17.8579 8.13767C17.874 8.22824 17.8834 8.32725 17.8894 8.41651C17.9014 8.59671 17.9021 8.77903 17.9021 8.85756C17.9021 8.93996 17.9164 8.98481 17.9477 9.07406C17.9846 9.17932 18.0428 9.3394 18.0429 9.57141V11.7056C18.0429 11.9163 17.9619 12.0639 17.9121 12.1453C17.9073 12.1533 17.8987 12.1659 17.8927 12.1755C17.8429 12.6239 17.7933 13.0747 17.644 13.5254L17.5716 13.7232C17.5336 13.8183 17.4967 13.9246 17.4557 14.0442C17.4158 14.1605 17.3719 14.2907 17.3243 14.4176C17.2431 14.6339 17.1374 14.8808 16.9845 15.0926L16.9154 15.181C16.8872 15.2149 16.8649 15.2676 16.7968 15.4237C16.7526 15.525 16.6753 15.7047 16.532 15.852L16.4663 15.913C16.4201 15.9516 16.363 16.0131 16.2907 16.102L16.0682 16.3815C15.9383 16.5373 15.7286 16.7732 15.4891 16.974C15.3691 17.0746 15.2321 17.1749 15.0849 17.2515C14.9407 17.3266 14.7595 17.3936 14.56 17.3936C14.4047 17.3936 14.2603 17.3788 14.125 17.3494C13.87 17.7596 13.6226 18.1677 13.3991 18.5821L13.2181 18.9306C12.7913 19.7842 12.2889 20.5962 11.7938 21.3885C11.3115 22.1603 10.8368 22.9121 10.4217 23.691C10.3928 23.7648 10.3626 23.838 10.3305 23.9102C10.3041 23.9697 10.2655 24.0195 10.2199 24.0603C9.98462 24.4825 9.73222 24.8934 9.48464 25.293C9.25447 25.6645 9.02983 26.0277 8.8224 26.3956L8.62132 26.7656C8.5236 26.9525 8.42606 27.1399 8.32773 27.3266C8.37563 27.2909 8.42385 27.254 8.47385 27.218L8.65483 27.0933C9.08428 26.8105 9.55603 26.5805 9.94446 26.3621L10.3265 26.1523C11.2198 25.6743 12.131 25.2705 13.0767 24.9089L13.6391 24.6884C14.1046 24.5061 14.6263 24.3141 15.1472 24.2131C14.9383 23.2226 14.9211 22.3275 15.1727 21.2934L15.2236 21.1137C15.2907 20.9024 15.4042 20.6119 15.5467 20.3851C15.5962 20.3063 15.657 20.2216 15.731 20.1478C15.8019 20.0773 15.9103 19.9912 16.0568 19.9508C16.2227 19.9051 16.3967 19.9305 16.5461 20.0252C16.6787 20.1093 16.7675 20.2316 16.829 20.3442L16.8967 20.481C17.0376 20.8012 17.0682 21.1236 17.0642 21.4147C17.062 21.5798 17.0484 21.7425 17.0347 21.8913C17.0254 21.9928 17.0177 22.0866 17.0106 22.1775C17.2583 21.9015 17.5365 21.6729 17.8136 21.471C17.9907 21.342 18.1716 21.2211 18.3451 21.1057C18.5211 20.9887 18.6883 20.8779 18.8499 20.7638L18.9786 20.6847C19.1124 20.6121 19.2589 20.5583 19.3814 20.5178C19.5501 20.4621 19.7316 20.4141 19.8426 20.3824L19.9646 20.353C20.0907 20.3281 20.2291 20.3197 20.3708 20.3463C20.5066 20.3718 20.6312 20.4279 20.7407 20.5118C20.796 20.5249 20.9343 20.565 21.037 20.6941L21.0799 20.7571L21.1067 20.8108C21.1327 20.8704 21.1456 20.9303 21.1523 20.985C21.1973 21.1002 21.2053 21.2167 21.2053 21.3188C21.2053 21.609 21.1328 21.9297 20.9452 22.2029L20.858 22.3169C20.4316 22.8144 19.9408 23.3868 19.3164 23.8016L19.1897 23.882C19.0915 23.942 18.9117 24.0594 18.7741 24.1407C18.66 24.2082 18.5292 24.2798 18.3907 24.3365L18.25 24.3874C18.2313 24.3933 18.2127 24.4019 18.1729 24.4243C18.2833 24.4518 18.3923 24.4804 18.5 24.5087L18.6421 24.5523C18.9697 24.6662 19.2678 24.8637 19.5208 25.0671C19.8134 25.3023 20.0768 25.5711 20.2863 25.789L20.3493 25.86C20.4947 26.0394 20.632 26.3062 20.7032 26.5625C20.7448 26.7123 20.775 26.8973 20.7475 27.0833C20.7217 27.2565 20.6412 27.4464 20.4679 27.5833L20.3882 27.639C19.8529 27.9601 19.3492 27.8647 18.9209 27.7402L18.7426 27.6859C18.687 27.6688 18.6266 27.6539 18.5543 27.6369C18.4863 27.621 18.4022 27.6022 18.3203 27.58C18.1747 27.5404 18.001 27.482 17.8331 27.3729L17.7613 27.3226C17.4506 27.0895 17.0988 26.7487 16.8471 26.4244C16.8454 26.5186 16.8429 26.6118 16.8383 26.7032C16.8061 27.3521 16.6947 28.0187 16.3611 28.643L16.2914 28.7671C16.1146 29.0676 15.7887 29.357 15.4334 29.4655C15.2485 29.5219 15.0092 29.5422 14.7786 29.428C14.7409 29.4093 14.7063 29.387 14.6733 29.3636C14.5955 29.3442 14.5169 29.3118 14.4421 29.259C14.2819 29.1461 14.2018 28.988 14.1606 28.8415L14.1304 28.7007C14.126 28.6713 14.1166 28.634 14.0976 28.5733C14.0816 28.5226 14.0521 28.4365 14.0312 28.3555C13.9849 28.1762 13.9509 27.9287 14.0667 27.6537L14.0982 27.5646C14.1259 27.4709 14.1444 27.3603 14.1693 27.2093C14.199 27.0284 14.2396 26.7819 14.3529 26.5457L14.4923 26.2347C14.538 26.1267 14.5834 26.0142 14.6304 25.8976C14.7225 25.669 14.8207 25.4232 14.9314 25.1857L14.9327 25.1824C14.6212 25.2707 14.3025 25.3881 13.9796 25.5142L13.3951 25.7427C12.4782 26.0933 11.6023 26.4818 10.7475 26.9392L10.3822 27.1396C9.92916 27.3944 9.52898 27.5858 9.15419 27.8327L8.99534 27.9426C8.22673 28.496 7.75566 28.9846 7.18154 29.7651C7.17071 29.7798 7.15689 29.7917 7.14468 29.8047C6.21848 32.1244 5.5997 34.6118 5.59967 37.0732C5.59967 37.3196 5.39966 37.5196 5.15326 37.5196C4.90694 37.5195 4.70752 37.3196 4.70752 37.0732Z" fill="#7A5295"/>
</svg>
