<svg width="38" height="38" viewBox="0 0 38 38" fill="none" xmlns="http://www.w3.org/2000/svg">
<path d="M12.9109 37.0732C12.9109 36.1557 12.9928 35.2387 13.1395 34.3311C13.1241 34.3051 13.1112 34.2773 13.1013 34.248L13.0811 34.1595L13.0637 34.0476C13.0157 33.7837 12.9161 33.5006 12.8043 33.1594C12.6854 32.7964 12.5523 32.3654 12.5523 31.9315C12.5523 31.7095 12.5385 31.4982 12.5215 31.2853C12.5158 31.2872 12.5105 31.2903 12.5047 31.292C12.3807 31.3295 12.2672 31.3151 12.1803 31.2887L12.1025 31.2598C11.8887 31.1648 11.5997 31.0535 11.3263 30.8637L11.2104 30.7772C8.7483 28.8076 8.61437 25.5825 8.61436 22.8156C8.61436 22.7141 8.62335 22.597 8.63112 22.4945C8.6394 22.3852 8.64738 22.2809 8.65056 22.1795C8.65374 22.0776 8.65147 21.9928 8.64251 21.9261C8.63777 21.8909 8.63191 21.868 8.62777 21.8544L8.6224 21.8383C8.52229 21.6756 8.40032 21.3843 8.3382 21.0936C8.30675 20.9463 8.28489 20.7743 8.30067 20.6043C8.31621 20.4372 8.37387 20.2204 8.55135 20.054L8.62642 19.9957C8.80403 19.8848 8.9891 19.9394 9.05206 19.9649C9.13143 19.997 9.19033 20.0443 9.21896 20.0688C9.28382 20.1242 9.34754 20.1962 9.4006 20.2605C9.51216 20.3955 9.64484 20.5795 9.7706 20.7592C9.89759 20.9406 10.0267 21.1311 10.1285 21.28C10.1803 21.3556 10.2243 21.4198 10.2592 21.469C10.2997 21.5259 10.3133 21.5421 10.3095 21.538L10.4034 21.6473C10.6179 21.9118 10.8032 22.2345 10.9583 22.4825C11.1569 22.7996 11.3179 23.0173 11.4865 23.1333L11.5502 23.1829C11.6869 23.3051 11.749 23.4651 11.7801 23.5583C11.8207 23.6795 11.8471 23.8146 11.8666 23.9142C11.889 24.0285 11.9044 24.1056 11.9229 24.1635C11.9234 24.1651 11.9237 24.1667 11.9242 24.1682C12.2058 24.3936 12.2619 24.6951 12.2902 24.87C12.3258 25.0901 12.3316 25.1175 12.3566 25.1475L12.3941 25.1971C12.4275 25.2471 12.4502 25.2965 12.4631 25.3251C12.4855 25.3745 12.507 25.4297 12.5268 25.4847C12.5668 25.5956 12.6076 25.7276 12.6441 25.856C12.6808 25.9849 12.7148 26.1167 12.74 26.2287C12.7606 26.3205 12.7882 26.4522 12.7882 26.5491C12.7882 26.7647 12.857 27.2288 12.9163 27.4955L13.0396 28.0096C13.1716 28.5483 13.3137 29.154 13.3137 29.7725C13.3137 30.133 13.3444 30.4634 13.3774 30.8141C13.41 31.1605 13.4451 31.5284 13.4451 31.9315C13.4451 32.0975 13.4776 32.2748 13.5296 32.4717C13.8231 31.3347 14.2071 30.2235 14.6483 29.1565L14.8024 28.7965C15.1754 27.9575 15.6282 27.1278 16.0337 26.352L16.2476 25.9586C16.4671 25.5691 16.701 25.1915 16.9293 24.8231C17.2365 24.3271 17.5337 23.8477 17.7932 23.3545L17.8113 23.3203C18.1448 22.4441 18.2464 21.403 18.2812 20.4099L18.3851 17.9895C18.4192 17.189 18.4461 16.392 18.4461 15.5906C18.4461 13.1895 18.5127 10.701 18.0667 8.39908C17.8344 8.45784 17.5884 8.50688 17.379 8.54588C17.1934 8.58043 17.0324 8.6098 16.9031 8.63838C16.8391 8.65252 16.7907 8.66473 16.7563 8.67524C16.7342 8.682 16.7248 8.68597 16.7248 8.68597L16.6424 8.73222C16.1374 8.9923 15.6134 8.89752 15.2214 8.78383C15.0168 8.7245 14.7949 8.64261 14.6389 8.59079C14.5059 8.54662 14.4057 8.51881 14.3279 8.50566L14.2568 8.49762C14.0847 8.48804 13.924 8.45469 13.7802 8.38166C13.6298 8.30518 13.5284 8.20083 13.4558 8.09679C13.3945 8.00876 13.3435 7.9023 13.3191 7.85548C13.3036 7.8257 13.2898 7.80093 13.2762 7.77907L13.234 7.72009C13.1609 7.63244 13.0644 7.47986 13.0791 7.27971C13.0888 7.14818 13.142 7.04685 13.2038 6.97272C13.1487 6.68627 13.2953 6.44128 13.4786 6.27629L13.5805 6.19787C13.8263 6.03577 14.1226 6.0165 14.3131 6.01488C14.4362 6.01384 14.558 6.02114 14.659 6.02761C14.7678 6.03459 14.8454 6.03968 14.9083 6.03968C15.3282 6.03969 15.7592 6.08127 16.1557 6.12011C16.1811 6.1226 16.2064 6.12437 16.2315 6.12682C16.0334 5.86623 15.8573 5.59205 15.7167 5.33856L15.5967 5.11066C15.5337 4.98456 15.4489 4.83605 15.3494 4.66492C15.2524 4.49812 15.1423 4.31162 15.0411 4.12535C14.9398 3.93909 14.8409 3.74169 14.7649 3.54823C14.7092 3.40638 14.6596 3.25169 14.6349 3.09445L14.6188 2.93626C14.6162 2.87359 14.5938 2.74141 14.5591 2.50526C14.528 2.29315 14.4929 2.02917 14.4827 1.77063C14.473 1.52284 14.4832 1.22788 14.5752 0.977014C14.6232 0.846415 14.7022 0.703952 14.8339 0.59093C14.9721 0.472468 15.1417 0.409277 15.3253 0.401909L15.4271 0.402579C15.9255 0.427322 16.2826 0.778268 16.5097 1.05276C16.6395 1.20975 16.7566 1.38012 16.8562 1.52397C16.9618 1.67649 17.0433 1.79324 17.1176 1.87989L17.2429 2.03338C17.7738 2.71346 18.0557 3.49226 18.2383 4.26946C18.2586 4.21751 18.2779 4.16527 18.2993 4.11395C18.6376 3.30225 19.1307 2.51235 19.5192 1.80012L19.5769 1.70897C19.6434 1.61449 19.7336 1.51277 19.8182 1.42208C19.9377 1.2939 20.0857 1.14696 20.2452 0.999133C20.426 0.770048 20.6468 0.542298 20.9034 0.413974L20.9945 0.373087C20.9978 0.371774 21.0013 0.371017 21.0046 0.369735C21.1841 0.24067 21.3792 0.116975 21.5569 0.0526903C21.6459 0.020519 21.8072 -0.026403 21.9819 0.0185057C22.0816 0.0441665 22.1827 0.0998547 22.262 0.194121C22.3194 0.262223 22.3535 0.335718 22.3726 0.40392L22.3874 0.470278L22.4189 0.719624C22.4708 1.29514 22.3693 1.82172 22.2285 2.30686C22.1488 2.58169 22.0531 2.85322 21.9651 3.10919C21.9203 3.23941 21.8774 3.36669 21.8371 3.4926L21.7258 3.86796C21.6525 4.14478 21.5126 4.40464 21.3907 4.61733C21.3291 4.7248 21.2728 4.81882 21.2231 4.90556C21.256 4.90563 21.2883 4.90467 21.3196 4.90556C21.4547 4.90936 21.5899 4.9198 21.701 4.92835L21.9557 4.94376L22.2815 4.93505C22.3816 4.93355 22.5309 4.93493 22.6756 4.98331C22.8486 5.04121 22.9983 5.15937 23.0885 5.34593C23.1661 5.50651 23.185 5.68818 23.185 5.85937C23.185 6.35759 22.9529 6.75724 22.6361 7.06052C22.3261 7.35721 21.9198 7.57857 21.512 7.7469C20.8997 7.99966 20.2162 8.15949 19.6875 8.26101L19.2189 8.34412C19.1354 8.35804 19.0515 8.36866 18.9696 8.37764C19.4061 10.7515 19.3383 13.286 19.3383 15.5906C19.3383 16.4014 19.311 17.2162 19.2766 18.0271L19.1727 20.4408C19.1655 20.6471 19.1532 20.8603 19.1385 21.0775C19.1723 21.0235 19.2067 20.9699 19.2404 20.916C19.737 20.1213 20.2178 19.3425 20.6232 18.5318L20.8136 18.1658C21.0098 17.8019 21.2232 17.4406 21.4409 17.086C21.4107 17.018 21.3698 16.9384 21.3149 16.8279C21.2496 16.6963 21.1585 16.5064 21.1272 16.2897L21.1179 16.1952C21.1018 15.9055 21.1172 15.5794 21.1172 15.3386C21.1172 15.2119 21.1045 15.1258 21.0971 14.9277C21.0913 14.7712 21.0914 14.5594 21.1527 14.3599L21.2305 14.1354C21.2579 14.0624 21.2852 13.9934 21.3069 13.9356C21.3553 13.807 21.3869 13.708 21.4014 13.6213L21.4383 13.4604C21.4819 13.3113 21.5429 13.1964 21.5871 13.1119C21.6473 12.9965 21.6721 12.9443 21.6849 12.8739L21.7131 12.7546C21.7893 12.4822 21.9424 12.2462 22.0234 12.1044L22.2124 11.782C22.2669 11.6868 22.3115 11.6008 22.3405 11.5139L22.3693 11.4388C22.4438 11.2686 22.5615 11.1347 22.6052 11.0789C22.6638 11.0039 22.6732 10.9797 22.6743 10.9757L22.6897 10.8992C22.6956 10.8789 22.7014 10.8637 22.7044 10.8557C22.7131 10.833 22.7229 10.8122 22.7306 10.796C22.7462 10.7633 22.7647 10.7283 22.7829 10.6962C22.8198 10.6309 22.867 10.5549 22.9142 10.4823C22.9614 10.4099 23.0132 10.3349 23.0604 10.2719C23.0837 10.2407 23.109 10.2075 23.1348 10.178C23.1463 10.1648 23.1753 10.1305 23.2165 10.0962C23.222 10.0894 23.2308 10.0798 23.2413 10.0654C23.2716 10.0241 23.3098 9.96744 23.3479 9.90589C23.3859 9.84444 23.42 9.78478 23.4438 9.73899C23.4514 9.72432 23.456 9.71228 23.4598 9.70413C23.4942 9.52368 23.5793 9.37837 23.6401 9.28319C23.7282 9.14562 23.7588 9.11456 23.7977 9.04122L23.9894 8.68262C24.0625 8.55394 24.1591 8.39666 24.2695 8.27508L24.2923 8.24559C24.3149 8.21085 24.3391 8.15676 24.3795 8.05255C24.4244 7.93656 24.4975 7.73351 24.6456 7.55587L24.6778 7.48951C24.7014 7.44281 24.7487 7.34513 24.7803 7.2844C24.7985 7.24945 24.8199 7.21002 24.8426 7.17313C24.8604 7.14443 24.8992 7.08315 24.9559 7.02969C24.982 7.0051 25.0487 6.94611 25.1523 6.91574C25.2863 6.87652 25.4503 6.89657 25.58 7.0069C25.6794 7.0916 25.7151 7.19402 25.7274 7.2348C25.7349 7.25971 25.7399 7.2838 25.7435 7.30518L25.7509 7.36081L25.7676 7.44393C25.7779 7.48049 25.7931 7.52527 25.8139 7.57597C25.8543 7.67433 25.9012 7.75763 25.9339 7.80253L25.9888 7.89704C26.0343 7.99289 26.0525 8.08866 26.0612 8.13767C26.0774 8.22824 26.0868 8.32725 26.0927 8.41651C26.1048 8.59671 26.1055 8.77903 26.1055 8.85756C26.1055 8.93996 26.1198 8.98481 26.151 9.07406C26.1879 9.17932 26.2462 9.3394 26.2462 9.57141V11.7056C26.2462 11.9163 26.1653 12.0639 26.1155 12.1453C26.1107 12.1533 26.1021 12.1659 26.0961 12.1755C26.0463 12.6239 25.9966 13.0747 25.8474 13.5254L25.775 13.7232C25.737 13.8183 25.7001 13.9246 25.659 14.0442C25.6191 14.1605 25.5753 14.2907 25.5277 14.4176C25.4465 14.6339 25.3408 14.8808 25.1878 15.0926L25.1188 15.181C25.0906 15.2149 25.0682 15.2676 25.0002 15.4237C24.956 15.525 24.8787 15.7047 24.7354 15.852L24.6697 15.913C24.6234 15.9516 24.5664 16.0131 24.4941 16.102L24.2716 16.3815C24.1417 16.5373 23.932 16.7732 23.6924 16.974C23.5725 17.0746 23.4355 17.1749 23.2882 17.2515C23.1441 17.3266 22.9629 17.3936 22.7634 17.3936C22.6081 17.3936 22.4637 17.3788 22.3284 17.3494C22.0734 17.7596 21.8259 18.1677 21.6025 18.5821L21.4215 18.9306C20.9947 19.7842 20.4923 20.5962 19.9971 21.3885C19.5149 22.1603 19.0401 22.9121 18.6251 23.691C18.5961 23.7648 18.566 23.838 18.5339 23.9102C18.5075 23.9697 18.4689 24.0195 18.4233 24.0603C18.188 24.4825 17.9356 24.8934 17.688 25.293C17.4578 25.6645 17.2332 26.0277 17.0258 26.3956L16.8247 26.7656C16.727 26.9525 16.6294 27.1399 16.5311 27.3266C16.579 27.2909 16.6272 27.254 16.6772 27.218L16.8582 27.0933C17.2876 26.8105 17.7594 26.5805 18.1478 26.3621L18.5299 26.1523C19.4232 25.6743 20.3343 25.2705 21.2801 24.9089L21.8424 24.6884C22.308 24.5061 22.8297 24.3141 23.3506 24.2131C23.1417 23.2226 23.1245 22.3275 23.3761 21.2934L23.427 21.1137C23.4941 20.9024 23.6075 20.6119 23.7501 20.3851C23.7996 20.3063 23.8604 20.2216 23.9344 20.1478C24.0053 20.0773 24.1137 19.9912 24.2602 19.9508C24.4261 19.9051 24.6001 19.9305 24.7495 20.0252C24.882 20.1093 24.9709 20.2316 25.0323 20.3442L25.1 20.481C25.241 20.8012 25.2716 21.1236 25.2676 21.4147C25.2654 21.5798 25.2517 21.7425 25.2381 21.8913C25.2288 21.9928 25.2211 22.0866 25.214 22.1775C25.4617 21.9015 25.7399 21.6729 26.017 21.471C26.194 21.342 26.375 21.2211 26.5485 21.1057C26.7245 20.9887 26.8917 20.8779 27.0532 20.7638L27.1819 20.6847C27.3158 20.6121 27.4623 20.5583 27.5848 20.5178C27.7535 20.4621 27.935 20.4141 28.0459 20.3824L28.1679 20.353C28.2941 20.3281 28.4325 20.3197 28.5741 20.3463C28.71 20.3718 28.8345 20.4279 28.9441 20.5118C28.9994 20.5249 29.1377 20.565 29.2404 20.6941L29.2833 20.7571L29.3101 20.8108C29.3361 20.8704 29.349 20.9303 29.3557 20.985C29.4007 21.1002 29.4086 21.2167 29.4086 21.3188C29.4086 21.609 29.3362 21.9297 29.1486 22.2029L29.0614 22.3169C28.635 22.8144 28.1442 23.3868 27.5198 23.8016L27.3931 23.882C27.2949 23.942 27.1151 24.0594 26.9775 24.1407C26.8634 24.2082 26.7326 24.2798 26.5941 24.3365L26.4533 24.3874C26.4347 24.3933 26.4161 24.4019 26.3763 24.4243C26.4867 24.4518 26.5957 24.4804 26.7034 24.5087L26.8455 24.5523C27.1731 24.6662 27.4712 24.8637 27.7242 25.0671C28.0168 25.3023 28.2802 25.5711 28.4897 25.789L28.5527 25.86C28.6981 26.0394 28.8354 26.3062 28.9066 26.5625C28.9482 26.7123 28.9784 26.8973 28.9508 27.0833C28.9251 27.2565 28.8446 27.4464 28.6713 27.5833L28.5915 27.639C28.0563 27.9601 27.5526 27.8647 27.1243 27.7402L26.946 27.6859C26.8903 27.6688 26.83 27.6539 26.7576 27.6369C26.6896 27.621 26.6056 27.6022 26.5237 27.58C26.378 27.5404 26.2043 27.482 26.0364 27.3729L25.9647 27.3226C25.654 27.0895 25.3022 26.7487 25.0504 26.4244C25.0487 26.5186 25.0463 26.6118 25.0417 26.7032C25.0095 27.3521 24.898 28.0187 24.5645 28.643L24.4948 28.7671C24.318 29.0676 23.9921 29.357 23.6368 29.4655C23.4519 29.5219 23.2125 29.5422 22.9819 29.428C22.9443 29.4093 22.9097 29.387 22.8767 29.3636C22.7989 29.3442 22.7203 29.3118 22.6454 29.259C22.4853 29.1461 22.4052 28.988 22.3639 28.8415L22.3338 28.7007C22.3293 28.6713 22.32 28.634 22.3009 28.5733C22.285 28.5226 22.2555 28.4365 22.2346 28.3555C22.1883 28.1762 22.1543 27.9287 22.2701 27.6537L22.3016 27.5646C22.3293 27.4709 22.3478 27.3603 22.3726 27.2093C22.4024 27.0284 22.4429 26.7819 22.5563 26.5457L22.6957 26.2347C22.7413 26.1267 22.7868 26.0142 22.8338 25.8976C22.9259 25.669 23.024 25.4232 23.1348 25.1857L23.1361 25.1824C22.8246 25.2707 22.5059 25.3881 22.1829 25.5142L21.5985 25.7427C20.6816 26.0933 19.8056 26.4818 18.9508 26.9392L18.5855 27.1396C18.1325 27.3944 17.7324 27.5858 17.3576 27.8327L17.1987 27.9426C16.4301 28.496 15.959 28.9846 15.3849 29.7651C15.3741 29.7798 15.3603 29.7917 15.348 29.8047C14.4218 32.1244 13.8031 34.6118 13.803 37.0732C13.803 37.3196 13.603 37.5196 13.3566 37.5196C13.1103 37.5195 12.9109 37.3196 12.9109 37.0732Z" fill="#7A5295"/>
</svg>
